<?xml version="1.0" encoding="UTF-8"?>
<svg width="94px" height="26px" viewBox="0 0 94 26" version="1.1" xmlns="http://www.w3.org/2000/svg" xmlns:xlink="http://www.w3.org/1999/xlink">
    <!-- Generator: Sketch 53.2 (72643) - https://sketchapp.com -->
    <title>linux-32-download</title>
    <desc>Created with Sketch.</desc>
    <g id="Page-1" stroke="none" stroke-width="1" fill="none" fill-rule="evenodd">
        <g id="linux-32-download">
            <rect id="Rectangle" fill="#000000" opacity="0.949388587" x="0" y="0" width="94" height="26" rx="2"></rect>
            <text id="DOWNLOAD-FOR" font-family="Helvetica" font-size="4" font-weight="normal" fill="#FFFFFF">
                <tspan x="25" y="9">DOWNLOAD FOR</tspan>
            </text>
            <text id="Linux-x32" font-family="Helvetica-Bold, Helvetica" font-size="10" font-weight="bold" fill="#FFFFFF">
                <tspan x="25" y="20">Linux x32</tspan>
            </text>
            <g id="linux-logo" transform="translate(5.000000, 4.000000)" fill="#FFFFFF" fill-rule="nonzero">
                <path d="M0,15.4947498 L0,14.8855437 C0.0831407334,14.5785283 0.124748042,14.2619236 0.123729342,13.9440434 C0.00798253821,13.1053961 0.123729342,12.8205725 0.921983163,12.5080577 C1.4766514,12.3012463 1.84286879,11.7741499 1.83997506,11.1867926 C1.84278102,11.0424561 1.85477869,10.8984392 1.87589648,10.7556013 C2.10471391,9.41986738 2.70612855,8.17426018 3.61209854,7.1597032 C4.22865203,6.5252147 4.62321951,5.71118027 4.73763643,4.83759959 C4.76956658,4.34707003 4.73763643,3.85258459 4.73763643,3.36205504 C4.72709217,2.92775104 4.74175103,2.4932054 4.78154039,2.06056937 C4.87710171,1.06652471 5.62962069,0.257579678 6.62151544,0.0826276125 C7.02328398,-0.0101953477 7.43939409,-0.0249726471 7.84683506,0.0391128939 C9.26373559,0.351627691 9.69080138,1.22587795 9.79856565,2.45220183 C9.85045215,3.01393729 9.85843469,3.57962863 9.86641722,4.14531997 C9.8536377,4.84411635 10.0661703,5.52872341 10.4730901,6.09952643 C10.768444,6.49511478 11.0877456,6.89070313 11.3830995,7.28629148 C12.2492049,8.44932123 12.9516682,9.65982158 12.7600873,11.1986603 C12.7121921,11.5942486 12.6443405,11.9265428 13.0394762,12.1757635 C13.1033365,12.2153223 13.1193015,12.3260871 13.155223,12.4052047 C13.3867166,12.8957343 13.6062364,13.3981315 13.8536951,13.8807493 C13.9811763,14.0458175 14.0285544,14.2582796 13.9831381,14.4612226 C13.9377218,14.6641655 13.8041526,14.8368486 13.6182102,14.9330143 C13.4625507,15.0398231 13.2789523,15.1031173 13.1232928,15.213882 C12.636358,15.5501321 12.1693795,15.9140734 11.6784534,16.2424117 C11.3055649,16.5140183 10.9040977,16.7448048 10.4810727,16.9307355 C9.9630666,17.1164848 9.38450652,16.9187501 9.09211102,16.4560294 C8.93349599,16.1337184 8.59521949,15.9372302 8.23398816,15.9575881 C7.96065073,15.9110757 7.6847675,15.8806937 7.40779546,15.8666028 C6.60954164,15.9338528 5.69953228,15.7518822 5.06492049,16.5074559 C4.9443154,16.6128661 4.79878239,16.6863483 4.64184597,16.7210736 C4.02719053,16.9267796 3.46841285,16.6973383 2.89766137,16.5035 C2.41870908,16.3413088 1.92379171,16.2186764 1.43286561,16.1079117 C0.941939509,15.997147 0.347240412,16.0327499 0,15.4947498 Z M8.49741192,5.30834972 L8.2938572,5.44680565 C7.32397881,6.08370289 6.35010914,6.5623648 5.32036172,5.57339392 C5.18864984,6.0085411 5.08088557,6.46346771 4.92123481,6.89070313 C4.76158404,7.31793854 4.50215155,7.74912985 4.30657936,8.18823292 C4.03640305,8.73318961 3.80176704,9.29475896 3.604116,9.86948341 C3.33670097,10.7595572 3.34069224,11.7366604 4.40236982,12.3379547 C4.70832299,12.5460643 4.96669536,12.815624 5.16071095,13.1291314 C5.51194263,13.619661 5.40816964,13.9203081 4.76158404,14.2407347 C5.05701099,14.5316259 5.37753297,14.7963595 5.71948863,15.0319114 C6.33149953,15.3636745 7.05675843,15.4226184 7.71512318,15.1941026 C9.15996259,14.7273084 9.26772686,14.6402789 9.26373559,13.3704403 C9.26373559,12.3933371 9.72672281,11.6852339 10.293483,10.9969102 C10.3941105,10.8923215 10.5280072,10.8252683 10.6726536,10.8070278 C11.3281487,10.8126826 11.9256349,11.1805113 12.221266,11.7603957 C12.4966636,11.1037191 11.9059557,10.5736307 10.6247584,10.2927629 L8.49741192,5.30834972 Z M3.86753976,16.3413088 L4.07109449,16.3808677 C4.41035236,16.4441618 4.68175866,16.1237352 4.89329592,15.8784705 C5.12460525,15.5497602 5.10329403,15.1078176 4.84140942,14.8024701 C4.79750546,14.7273084 4.74561896,14.6561024 4.701715,14.5809407 C4.2733188,13.9084405 3.84625299,13.2372589 3.42051762,12.567396 C3.33769632,12.4277111 3.24288564,12.2953588 3.13713752,12.1718076 C2.71007172,11.7050134 2.33888369,11.7406163 1.93975678,12.1994988 C1.68762293,12.4686383 1.3922657,12.6945416 1.06566885,12.8680431 C0.762026903,12.9923694 0.576942683,13.2997174 0.610664173,13.6236169 C0.618728109,14.0267979 0.597385759,14.4300295 0.546803867,14.8301613 C0.486934831,15.3286026 0.574742751,15.451235 1.09360773,15.5778233 C1.86791394,15.7677057 2.63822888,15.9734117 3.41253508,16.1791176 C3.57617712,16.2503235 3.68394138,16.30175 3.86753976,16.3413088 Z M10.1537886,11.7801751 C10.0131076,12.002795 9.89797631,12.2403042 9.81053946,12.4882783 C9.62694108,13.4099991 9.47128158,14.3356759 9.31562209,15.2573967 C9.20410284,15.6485781 9.35072462,16.0671683 9.68281885,16.3057059 C10.0363263,16.5310984 10.4868709,16.5432909 10.8522607,16.3373529 C11.0296302,16.2684951 11.1911698,16.1648962 11.3272217,16.0327499 C11.8346705,15.4959495 12.4435547,15.0631599 13.1193015,14.7589554 C13.5543499,14.5492936 13.5782975,14.2802935 13.3148737,13.8688816 C13.1322157,13.6115659 12.9858486,13.3307435 12.8798254,13.0341902 C12.6403493,12.15994 12.3210477,12.0333517 11.5666979,12.5199254 C10.97599,12.9155137 10.5090116,12.7493666 10.2855005,12.0768664 C10.2695354,12.0333517 10.2415965,11.9740134 10.1537886,11.7801751 Z M6.60954164,5.94129108 C6.71491844,5.94218013 6.81984164,5.92751444 6.92086063,5.89777637 C7.45251583,5.70761099 7.94283765,5.41897957 8.36570004,5.04726141 C8.42493287,4.86848819 8.39690626,4.67257919 8.28986593,4.51717302 C7.76189303,4.24411128 7.21185017,4.01519435 6.64546306,3.83280518 C6.47782976,3.78137869 6.22238853,3.91192285 6.03879015,4.01477582 C5.78645266,4.15003669 5.55410756,4.31908999 5.3483006,4.51717302 C5.22993321,4.64584834 5.17321524,4.81881792 5.1926411,4.99187904 C5.28044902,5.35186444 6.25431869,5.95315874 6.60954164,5.94129108 Z M8.32977862,4.25212883 C8.40509163,4.10547794 8.4691337,3.95340408 8.52135954,3.79720222 C8.67302776,3.19195205 8.33776116,2.49967243 7.85880887,2.40868711 C7.37985657,2.31770179 6.96476459,2.72120191 6.8849392,3.30271679 C6.84901778,3.55589333 6.96476459,3.78137869 7.23217962,3.69830514 C7.29603992,3.46490801 7.42376053,2.90712844 7.71911445,2.97042257 C8.01446836,3.03371671 8.11824136,3.36601092 7.92666044,4.03851112 C8.03841598,4.09784937 8.18210166,4.20070234 8.32977862,4.25212883 Z M5.98690366,3.81698164 C6.38603057,3.62314335 6.27028376,3.31458444 6.17050203,3.02580494 C6.07072031,2.73702545 5.88712193,2.53923127 5.53589025,2.58670187 C5.46595276,2.60347772 5.40142583,2.63749627 5.3483006,2.68559896 C5.02386714,3.11126867 4.9953654,3.69037429 5.27645776,4.14531997 C5.30940592,4.19269029 5.36674425,4.21726547 5.42413471,4.20861411 C5.46678023,4.17462516 5.50558853,4.13616092 5.53988152,4.09389349 C5.4800419,3.99938779 5.43433272,3.89678772 5.40417837,3.78929046 C5.31237918,3.39370211 5.43211725,3.12865791 5.62768944,3.13656968 C5.82326162,3.14448145 5.91506081,3.3224962 5.96694731,3.53215803 C5.98708542,3.62571133 5.99247104,3.72179315 5.98291239,3.81698164 L5.98690366,3.81698164 Z" id="Shape"></path>
                <path d="M8,5 C6.77629631,6.27583108 5.77629631,6.33085346 5,5.1650671 C5.42597293,5.53939016 5.96772507,5.68909792 6.49333333,5.57773484 C7.01895929,5.47998437 7.52765467,5.28492391 8,5 Z" id="Shape"></path>
            </g>
        </g>
    </g>
</svg>