<?xml version="1.0" encoding="UTF-8"?>
<svg width="128px" height="36px" viewBox="0 0 128 36" version="1.1" xmlns="http://www.w3.org/2000/svg" xmlns:xlink="http://www.w3.org/1999/xlink">
    <!-- Generator: Sketch 53.2 (72643) - https://sketchapp.com -->
    <title>linux-x64-download</title>
    <desc>Created with Sketch.</desc>
    <g id="Page-1" stroke="none" stroke-width="1" fill="none" fill-rule="evenodd">
        <g id="linux-x64-download">
            <rect id="Rectangle" fill="#000000" opacity="0.949388587" x="0" y="0" width="128" height="35.4042553" rx="2.72340426"></rect>
            <text id="DOWNLOAD-FOR" font-family="Helvetica" font-size="5.44680851" font-weight="normal" fill="#FFFFFF">
                <tspan x="34.0425532" y="11.8085106">DOWNLOAD FOR</tspan>
            </text>
            <text id="Linux-x64" font-family="Helvetica-Bold, Helvetica" font-size="13.6170213" font-weight="bold" fill="#FFFFFF">
                <tspan x="34.0425532" y="26.6170213">Linux x64</tspan>
            </text>
            <g id="linux-logo" transform="translate(6.808511, 5.446809)" fill="#FFFFFF" fill-rule="nonzero">
                <path d="M0,21.0992337 L0,20.2696765 C0.113212913,19.851613 0.169869674,19.4204917 0.168482509,18.9876336 C0.0108698393,17.8456458 0.168482509,17.4578009 1.25546643,17.0322488 C2.01075935,16.7506332 2.50943835,16.0328849 2.50549795,15.2330793 C2.50931883,15.036536 2.52565609,14.8404279 2.55441223,14.6459252 C2.86599341,12.8270535 3.684941,11.1309075 4.91860227,9.74938309 C5.75816447,8.88539874 6.29544785,7.77692632 6.4512496,6.58736965 C6.49472896,5.91941451 6.4512496,5.24607264 6.4512496,4.5781175 C6.43689147,3.98672482 6.45685246,3.39500309 6.51103372,2.80588169 C6.64115977,1.45228897 7.66586647,0.350746795 9.01653167,0.112514196 C9.56362073,-0.0138830267 10.1302388,-0.0340053067 10.685052,0.0532601109 C12.6144485,0.478812175 13.1959849,1.66928061 13.3427277,3.33916845 C13.4133816,4.10408482 13.4242515,4.87438792 13.4351213,5.64469103 C13.4177194,6.59624354 13.7071255,7.52847443 14.2612291,8.30573811 C14.6634132,8.84441161 15.0982067,9.38308511 15.5003908,9.92175861 C16.6797683,11.5054587 17.6363142,13.1537996 17.3754381,15.2492395 C17.310219,15.787913 17.2178254,16.2403987 17.7558824,16.5797631 C17.8428411,16.6336304 17.8645808,16.784459 17.9134951,16.8921937 C18.2287204,17.5601488 18.527641,18.2442642 18.864606,18.9014458 C19.0381975,19.1262195 19.1027124,19.4155297 19.040869,19.6918775 C18.9790254,19.9682254 18.7971439,20.2033683 18.5439458,20.3343173 C18.3319839,20.4797592 18.0819776,20.5659469 17.8700157,20.7167755 C17.2069556,21.174648 16.57107,21.6702276 15.9025748,22.1173266 C15.3948117,22.4871739 14.8481331,22.8014364 14.272099,23.0546185 C13.566729,23.3075538 12.7789025,23.038298 12.3807469,22.4082103 C12.1647605,21.9693186 11.7041287,21.7017603 11.2122392,21.7294817 C10.840035,21.6661456 10.4643643,21.6247745 10.0872108,21.6055868 C9.00022691,21.6971613 7.76106523,21.4493715 6.89691301,22.4782379 C6.73268479,22.6217751 6.53451219,22.7218359 6.32081153,22.7691216 C5.48383391,23.0492318 4.72294516,22.7368011 3.94575165,22.4728511 C3.2935613,22.251995 2.61963126,22.0850062 1.95113615,21.9341776 C1.28264103,21.783349 0.472838008,21.8318297 0,21.0992337 Z M11.5709439,7.22839111 L11.293763,7.41692684 C9.97307752,8.28419117 8.64695713,8.9359861 7.24474787,7.58930236 C7.06539552,8.18184321 6.91865269,8.80131773 6.7012559,9.38308511 C6.48385912,9.96485249 6.13058934,10.5520066 5.86427828,11.1499342 C5.49637863,11.8920029 5.17687427,12.6566931 4.90773243,13.4392966 C4.54359281,14.6513119 4.54902773,15.9818355 5.99471635,16.8006192 C6.41133343,17.0840024 6.76315964,17.4510624 7.02735108,17.8779662 C7.50562401,18.5459213 7.3643161,18.9553132 6.48385912,19.3916387 C6.88614263,19.787746 7.32259809,20.1482342 7.78823983,20.4689857 C8.62161638,20.9207482 9.60920297,21.0010124 10.5056996,20.6898418 C12.4731406,20.0542071 12.6198834,19.9356989 12.6144485,18.206557 C12.6144485,16.8760335 13.2448991,15.9118079 14.0166577,14.974516 C14.1536824,14.8320974 14.3360099,14.7407908 14.5329751,14.7159527 C15.4255642,14.7236529 16.2391624,15.2245261 16.6417239,16.0141559 C17.0167334,15.1199579 16.2123653,14.3981354 14.4677561,14.0156772 L11.5709439,7.22839111 Z M5.26643712,22.251995 L5.54361802,22.3058623 C6.00558619,22.3920501 6.37516073,21.9557246 6.66321147,21.621747 C6.97818588,21.1741416 6.94916634,20.5723474 6.59255751,20.1565551 C6.5327734,20.0542071 6.46211944,19.9572459 6.40233533,19.8548979 C5.8189873,18.939153 5.23745089,18.0252036 4.65772612,17.1130498 C4.54494818,16.9228406 4.41584428,16.7426162 4.27184683,16.5743763 C3.69031043,15.9387416 3.1848629,15.9872222 2.64137094,16.6120835 C2.29803974,16.9785713 1.89585117,17.2861843 1.45112354,17.5224417 C1.03765366,17.6917371 0.785624078,18.1102535 0.831542704,18.5513081 C0.842523383,19.1003206 0.81346146,19.6494018 0.744583989,20.1942622 C0.663060195,20.8729908 0.782628427,21.0399796 1.48916798,21.2123551 C2.54354239,21.4709184 3.59248188,21.7510286 4.64685628,22.0311389 C4.86968799,22.1281001 5.01643082,22.1981276 5.26643712,22.251995 Z M13.8264355,16.0410896 C13.63487,16.3442315 13.4780954,16.6676483 13.3590325,17.0053151 C13.1090261,18.2604244 12.8970643,19.5209204 12.6851024,20.7760296 C12.5332464,21.3087021 12.7329016,21.8786973 13.185115,22.2035144 C13.6664869,22.5104318 14.2799945,22.5270344 14.7775465,22.2466083 C15.0190709,22.1528444 15.2390397,22.0117735 15.4243019,21.8318297 C16.115296,21.1008673 16.9444149,20.5115369 17.8645808,20.097301 C18.4569871,19.811804 18.4895966,19.4455061 18.1308919,18.8852856 C17.882166,18.5348983 17.6828577,18.1525018 17.5384856,17.7486845 C17.2123905,16.5582161 16.7775969,16.3858406 15.7503971,17.048409 C14.946029,17.5870825 14.3101434,17.3608396 14.0057879,16.4450947 C13.9840482,16.3858406 13.9460038,16.3050396 13.8264355,16.0410896 Z M9.00022691,8.09026871 C9.14371873,8.09147933 9.28659288,8.07150903 9.42415064,8.03101463 C10.1481067,7.77206603 10.8157789,7.37903601 11.3915915,6.8728666 C11.472249,6.62943073 11.4340851,6.36266103 11.2883281,6.15104412 C10.5693863,5.77921536 9.82039172,5.46749869 9.04914119,5.21913896 C8.82087456,5.14911141 8.4730397,5.32687366 8.2230334,5.46692877 C7.8794249,5.65111379 7.56304008,5.88131403 7.28279231,6.15104412 C7.12161118,6.32626157 7.0443782,6.56179462 7.07083044,6.79745231 C7.19039867,7.2876452 8.51651906,8.10642892 9.00022691,8.09026871 Z M11.3426773,5.79013287 C11.4452312,5.59043804 11.5324374,5.38335875 11.6035534,5.17065835 C11.8100804,4.3464879 11.3535471,3.40380927 10.7013568,3.27991437 C10.0491664,3.15601946 9.48393476,3.70546643 9.37523636,4.49731648 C9.32632209,4.84206751 9.48393476,5.14911141 9.84807437,5.03598997 C9.93503309,4.71817261 10.1089505,3.95864298 10.5111346,4.04483074 C10.9133186,4.1310185 11.0546265,4.58350423 10.7937504,5.49924918 C10.9459281,5.58005021 11.1415852,5.72010532 11.3426773,5.79013287 Z M8.15237945,5.19759202 C8.69587141,4.93364201 8.53825874,4.51347668 8.40238575,4.12024503 C8.26651276,3.72701337 8.01650646,3.45767662 7.53823353,3.52231744 C7.4429995,3.54516115 7.35513304,3.59148428 7.28279231,3.65698582 C6.84101057,4.23662117 6.8021997,5.02519052 7.18496375,5.64469103 C7.22982934,5.70919529 7.30790707,5.74265936 7.38605578,5.73087879 C7.44412626,5.68459596 7.49697162,5.63221912 7.54366845,5.57466347 C7.46218471,5.44597486 7.39994243,5.30626412 7.35888118,5.15988488 C7.23387803,4.62121138 7.39692562,4.26030014 7.66323668,4.27107361 C7.92954774,4.28184708 8.05455089,4.52425015 8.12520485,4.8097471 C8.15262695,4.93713883 8.15996056,5.06797365 8.14694453,5.19759202 L8.15237945,5.19759202 Z" id="Shape"></path>
                <path d="M10.893617,6.80851064 C9.2272971,8.54581253 7.86559498,8.62073663 6.80851064,7.03328285 C7.38855889,7.54299937 8.12626392,7.74685674 8.84198582,7.59521339 C9.5577318,7.46210638 10.2504234,7.19649214 10.893617,6.80851064 Z" id="Shape"></path>
            </g>
        </g>
    </g>
</svg>