<?xml version="1.0" encoding="UTF-8"?>
<svg width="94px" height="26px" viewBox="0 0 94 26" version="1.1" xmlns="http://www.w3.org/2000/svg" xmlns:xlink="http://www.w3.org/1999/xlink">
    <!-- Generator: Sketch 53.2 (72643) - https://sketchapp.com -->
    <title>mac-x64-download</title>
    <desc>Created with Sketch.</desc>
    <defs>
        <filter x="-100.0%" y="-80.0%" width="300.0%" height="260.0%" filterUnits="objectBoundingBox" id="filter-1">
            <feOffset dx="0" dy="2" in="SourceAlpha" result="shadowOffsetOuter1"></feOffset>
            <feGaussianBlur stdDeviation="2" in="shadowOffsetOuter1" result="shadowBlurOuter1"></feGaussianBlur>
            <feColorMatrix values="0 0 0 0 0   0 0 0 0 0   0 0 0 0 0  0 0 0 0.5 0" type="matrix" in="shadowBlurOuter1" result="shadowMatrixOuter1"></feColorMatrix>
            <feMerge>
                <feMergeNode in="shadowMatrixOuter1"></feMergeNode>
                <feMergeNode in="SourceGraphic"></feMergeNode>
            </feMerge>
        </filter>
    </defs>
    <g id="Page-1" stroke="none" stroke-width="1" fill="none" fill-rule="evenodd">
        <g id="mac-x64-download">
            <rect id="Rectangle" fill="#000000" opacity="0.953238225" x="0" y="0" width="94" height="26" rx="2"></rect>
            <text id="DOWNLOAD-FOR" font-family="Helvetica" font-size="4" font-weight="normal" fill="#FFFFFF">
                <tspan x="25" y="9">DOWNLOAD FOR</tspan>
            </text>
            <text id="OS-X" font-family="Helvetica-Bold, Helvetica" font-size="10" font-weight="bold" fill="#FFFFFF">
                <tspan x="25" y="20">OS X</tspan>
            </text>
            <g id="apple-logo" filter="url(#filter-1)" transform="translate(5.000000, 5.000000)" fill="#FFFFFF" fill-rule="nonzero">
                <path d="M0,8.74908886 L0,7.98183966 C0,7.95270361 0,7.92356757 0.019703374,7.89766886 C0.0623940175,7.61925776 0.0820973915,7.33760932 0.147775305,7.06243555 C0.325333493,6.18307793 0.801353973,5.38954059 1.49745642,4.81248537 C2.11474115,4.29475399 2.90036211,4.01322832 3.7108021,4.01933746 C4.04810108,4.03280233 4.38089015,4.10060367 4.69597079,4.22005244 L5.85190207,4.61500773 C6.00361427,4.66916555 6.16978694,4.66916555 6.32149915,4.61500773 C6.64988871,4.50170088 6.97827828,4.39486871 7.30666784,4.29127389 C7.84561517,4.07046438 8.42835159,3.97305826 9.01100969,4.00638811 C9.77677916,4.0580972 10.5054599,4.35088436 11.0897156,4.84162141 C11.2918559,5.01629552 11.4696375,5.21659397 11.6184228,5.43729168 C9.35581874,6.65776825 9.52329741,10.099059 11.9993547,11.151194 C12.0002151,11.1576409 12.0002151,11.1641711 11.9993547,11.170618 C11.7357733,11.9671212 11.3504029,12.7192929 10.8565591,13.4011441 C10.5780448,13.8173752 10.2470034,14.1970268 9.87139035,14.5309752 C9.50726381,14.8585933 9.01868925,15.0175724 8.52827703,14.9680159 C8.19438267,14.9259023 7.8688756,14.8342188 7.56281171,14.6960795 C6.82141292,14.3544714 5.97034168,14.3275577 5.20825852,14.6216207 C4.96525024,14.7122662 4.72552586,14.806149 4.47923368,14.8870825 C3.94415721,15.0989512 3.33465056,15.0085117 2.88654429,14.6507568 C2.69394905,14.5047599 2.51482649,14.3422602 2.35126929,14.165156 C1.69755672,13.4567074 1.16417405,12.6488457 0.77171548,11.7727629 C0.414077541,10.971056 0.175194223,10.1228323 0.0623940175,9.25411365 C0.0361228523,9.08577205 0.019703374,8.91743046 0,8.74908886 Z" id="Shape"></path>
                <path d="M9.98638203,0 C10.0198429,0.272576966 9.99155759,0.546900832 9.90244663,0.814042949 C9.61171237,1.71774086 8.68130251,2.47637041 7.39763735,2.8563927 C6.9962792,2.96807105 6.56024945,3.01572669 6.12535327,2.9954463 C6.0281649,2.9954463 6.01049429,2.96937375 6.00607664,2.91143475 C5.94645361,2.20469359 6.32757441,1.51242898 7.06189572,0.993653848 C7.75559052,0.462291467 8.7190387,0.113465278 9.77433469,0.0115878 L9.82292887,0.0115878 L9.98638203,0 Z" id="Shape"></path>
            </g>
        </g>
    </g>
</svg>