<?xml version="1.0" encoding="UTF-8"?>
<svg width="128px" height="36px" viewBox="0 0 128 36" version="1.1" xmlns="http://www.w3.org/2000/svg" xmlns:xlink="http://www.w3.org/1999/xlink">
    <!-- Generator: Sketch 53.2 (72643) - https://sketchapp.com -->
    <title>mac-x64-download</title>
    <desc>Created with Sketch.</desc>
    <defs>
        <filter x="-97.9%" y="-78.3%" width="299.9%" height="259.5%" filterUnits="objectBoundingBox" id="filter-1">
            <feOffset dx="0" dy="3" in="SourceAlpha" result="shadowOffsetOuter1"></feOffset>
            <feGaussianBlur stdDeviation="2.5" in="shadowOffsetOuter1" result="shadowBlurOuter1"></feGaussianBlur>
            <feColorMatrix values="0 0 0 0 0   0 0 0 0 0   0 0 0 0 0  0 0 0 0.5 0" type="matrix" in="shadowBlurOuter1" result="shadowMatrixOuter1"></feColorMatrix>
            <feMerge>
                <feMergeNode in="shadowMatrixOuter1"></feMergeNode>
                <feMergeNode in="SourceGraphic"></feMergeNode>
            </feMerge>
        </filter>
    </defs>
    <g id="Page-1" stroke="none" stroke-width="1" fill="none" fill-rule="evenodd">
        <g id="mac-x64-download" transform="translate(0.000000, 0.000000)">
            <rect id="Rectangle" fill="#000000" opacity="0.953238225" x="0" y="0" width="128" height="35.4042553" rx="2.72340426"></rect>
            <text id="DOWNLOAD-FOR" font-family="Helvetica" font-size="5.44680851" font-weight="normal" fill="#FFFFFF">
                <tspan x="34.0425532" y="11.8085106">DOWNLOAD FOR</tspan>
            </text>
            <text id="OS-X" font-family="Helvetica-Bold, Helvetica" font-size="13.6170213" font-weight="bold" fill="#FFFFFF">
                <tspan x="34.0425532" y="26.6170213">OS X</tspan>
            </text>
            <g id="apple-logo" filter="url(#filter-1)" transform="translate(6.808511, 6.808511)" fill="#FFFFFF" fill-rule="nonzero">
                <path d="M0,11.9136529 L0,10.868888 C0,10.8292134 0,10.7895388 0.0268301262,10.7542725 C0.0849620664,10.3751595 0.111792193,9.99163822 0.201225947,9.61693352 C0.443007309,8.41951038 1.09120541,7.33894889 2.03908959,6.55317157 C2.87964753,5.84817565 3.94942926,5.46482154 5.05300711,5.47314037 C5.51230786,5.49147552 5.96546743,5.58380074 6.39451342,5.74645439 L7.96854749,6.28426584 C8.17513433,6.35801267 8.401412,6.35801267 8.60799884,6.28426584 C9.05516761,6.12997567 9.50233638,5.98450208 9.94950515,5.84343678 C10.6833909,5.54276 11.4769043,5.41012188 12.2703111,5.45550721 C13.313061,5.52591959 14.3053071,5.92460849 15.1008894,6.59284618 C15.3761441,6.83070028 15.6182298,7.1034471 15.8208311,7.40397165 C12.7398383,9.0658972 12.9678944,13.7519101 16.3395469,15.1846045 C16.3407184,15.1933833 16.3407184,15.2022755 16.3395469,15.2110543 C15.9806274,16.2956544 15.4558678,17.3198883 14.7833996,18.2483665 C14.404146,18.8151492 13.9533663,19.3321216 13.4418932,19.7868599 C12.9460614,20.2329781 12.2807683,20.4494603 11.612973,20.3819791 C11.1583083,20.3246329 10.7150647,20.1997873 10.2982968,20.0116827 C9.28873248,19.5465142 8.12982697,19.5098658 7.0920967,19.910292 C6.76119181,20.0337242 6.43475861,20.1615646 6.09938203,20.2717719 C5.37076727,20.560274 4.54080076,20.4371223 3.93061349,19.9499666 C3.66835615,19.7511624 3.42444458,19.5298862 3.2017284,19.2887231 C2.3115666,18.324027 1.58525828,17.22396 1.05084661,16.0309963 C0.563850268,14.9393104 0.238562347,13.7842823 0.0849620664,12.6013462 C0.0491885648,12.3721151 0.0268301262,12.142884 0,11.9136529 Z" id="Shape"></path>
                <path d="M13.5984777,0 C13.6440414,0.371168635 13.6055252,0.744716026 13.4841826,1.10848402 C13.0882892,2.33905138 11.8213481,3.37207886 10.0733785,3.88955601 C9.52684828,4.04162867 8.93310563,4.10652145 8.34090658,4.07890559 C8.20856498,4.07890559 8.18450286,4.04340255 8.17848734,3.96450689 C8.09729854,3.00213595 8.61627153,2.05947776 9.61619842,1.35306056 C10.5608041,0.629503275 11.8727336,0.154505911 13.3097323,0.0157791319 L13.3759031,0.0157791319 L13.5984777,0 Z" id="Shape"></path>
            </g>
        </g>
    </g>
</svg>